<mxfile host="Electron" agent="Mozilla/5.0 (Macintosh; Intel Mac OS X 10_15_7) AppleWebKit/537.36 (KHTML, like Gecko) draw.io/26.0.16 Chrome/132.0.6834.196 Electron/34.2.0 Safari/537.36" version="26.0.16">
  <diagram name="第 1 页" id="P3tw4BT_rQOVAfF1uHij">
    <mxGraphModel dx="1434" dy="769" grid="1" gridSize="10" guides="1" tooltips="1" connect="1" arrows="1" fold="1" page="1" pageScale="1" pageWidth="827" pageHeight="1169" math="0" shadow="0">
      <root>
        <mxCell id="0" />
        <mxCell id="1" parent="0" />
        <mxCell id="JmSABSbf90jH8HAgZQMv-1" value="" style="rounded=0;whiteSpace=wrap;html=1;" parent="1" vertex="1">
          <mxGeometry x="190" y="150" width="820" height="560" as="geometry" />
        </mxCell>
        <mxCell id="JmSABSbf90jH8HAgZQMv-2" value="cachedAdaptiveClass" style="rounded=0;whiteSpace=wrap;html=1;" parent="1" vertex="1">
          <mxGeometry x="260" y="220" width="160" height="60" as="geometry" />
        </mxCell>
        <mxCell id="JmSABSbf90jH8HAgZQMv-3" value="cachedWrapperClasses" style="rounded=0;whiteSpace=wrap;html=1;" parent="1" vertex="1">
          <mxGeometry x="480" y="220" width="160" height="60" as="geometry" />
        </mxCell>
        <mxCell id="JmSABSbf90jH8HAgZQMv-4" value="cachedClasses" style="rounded=0;whiteSpace=wrap;html=1;" parent="1" vertex="1">
          <mxGeometry x="710" y="220" width="160" height="60" as="geometry" />
        </mxCell>
        <mxCell id="GIGR4qfVuw-gQyfQ3NuO-1" value="1级" style="text;html=1;align=center;verticalAlign=middle;whiteSpace=wrap;rounded=0;" vertex="1" parent="1">
          <mxGeometry x="300" y="190" width="60" height="30" as="geometry" />
        </mxCell>
        <mxCell id="GIGR4qfVuw-gQyfQ3NuO-2" value="2级" style="text;html=1;align=center;verticalAlign=middle;whiteSpace=wrap;rounded=0;" vertex="1" parent="1">
          <mxGeometry x="530" y="190" width="60" height="30" as="geometry" />
        </mxCell>
        <mxCell id="GIGR4qfVuw-gQyfQ3NuO-3" value="3级" style="text;html=1;align=center;verticalAlign=middle;whiteSpace=wrap;rounded=0;" vertex="1" parent="1">
          <mxGeometry x="760" y="190" width="60" height="30" as="geometry" />
        </mxCell>
      </root>
    </mxGraphModel>
  </diagram>
</mxfile>
